<svg width="19" height="19" viewBox="0 0 19 19" fill="none" xmlns="http://www.w3.org/2000/svg">
<path d="M8.75 19C8.25736 19.0014 7.76934 18.905 7.31423 18.7164C6.85912 18.5278 6.44598 18.2508 6.09875 17.9013L1.09875 12.9013C0.39 12.1938 0 11.2513 0 10.25C0 9.24878 0.39 8.30628 1.09875 7.59753C2.515 6.18128 4.985 6.18128 6.40125 7.59753L7.88625 9.08253L11.7225 2.17878C12.0822 1.52992 12.6264 1.00238 13.2861 0.662971C13.9458 0.323562 14.6914 0.18754 15.4285 0.272129C16.1656 0.356718 16.861 0.658112 17.4267 1.13815C17.9923 1.61819 18.4029 2.25529 18.6063 2.96878C18.7432 3.4423 18.7847 3.93834 18.7283 4.42804C18.6719 4.91774 18.5186 5.39134 18.2775 5.82128L12.0275 17.0713C11.7012 17.6545 11.2258 18.1404 10.6499 18.4794C10.0739 18.8183 9.41825 18.998 8.75 19ZM3.75 9.00003C3.415 9.00003 3.1025 9.13003 2.86625 9.36628C2.63 9.60253 2.5 9.91503 2.5 10.25C2.5 10.585 2.63 10.8975 2.86625 11.1338L7.86625 16.1338C8.00326 16.2701 8.16994 16.3728 8.35326 16.4339C8.53658 16.4951 8.73156 16.513 8.92295 16.4862C9.11434 16.4595 9.29694 16.3888 9.45646 16.2797C9.61599 16.1707 9.74812 16.0262 9.8425 15.8575L16.0925 4.60753C16.1727 4.46432 16.2238 4.30662 16.2427 4.14355C16.2615 3.98048 16.2479 3.81529 16.2025 3.65753C16.1577 3.49911 16.0818 3.3512 15.9792 3.22244C15.8766 3.09367 15.7494 2.98662 15.605 2.90753C15.3146 2.75252 14.9753 2.71645 14.6588 2.80695C14.3423 2.89745 14.0733 3.10743 13.9088 3.39253L8.4625 13.1938L4.635 9.36628C4.51897 9.24983 4.38103 9.15751 4.22913 9.09465C4.07723 9.03179 3.91439 8.99963 3.75 9.00003Z" fill="#EF8711"/>
</svg>
