<svg width="31" height="31" viewBox="0 0 31 31" fill="none" xmlns="http://www.w3.org/2000/svg">
<mask id="mask0_3220_54" style="mask-type:luminance" maskUnits="userSpaceOnUse" x="0" y="0" width="31" height="31">
<path fill-rule="evenodd" clip-rule="evenodd" d="M0.000732422 0.000244141H30.7501V30.7495H0.000732422V0.000244141Z" fill="white"/>
</mask>
<g mask="url(#mask0_3220_54)">
<path fill-rule="evenodd" clip-rule="evenodd" d="M3.53936 4.591C3.54236 4.591 3.46736 4.669 3.37286 4.762C3.00986 5.1145 2.25836 5.848 2.25086 7.3825C2.23886 9.529 3.65036 13.5145 10.4469 20.3095C17.2119 27.0715 21.1914 28.4995 23.3424 28.4995H23.3739C24.9084 28.492 25.6404 27.739 25.9944 27.3775C26.1024 27.2665 26.1894 27.1855 26.2509 27.1345C27.7449 25.6315 28.5099 24.5125 28.5024 23.7955C28.4919 23.0635 27.5814 22.198 26.3229 21.001C25.9224 20.62 25.4874 20.206 25.0284 19.747C23.8389 18.5605 23.2494 18.763 21.9534 19.219C20.1609 19.8475 17.7009 20.7025 13.8789 16.879C10.0509 13.054 10.9074 10.597 11.5344 8.8045C11.9874 7.5085 12.1944 6.9175 11.0034 5.7265C10.5369 5.2615 10.1184 4.8205 9.73286 4.4155C8.54336 3.1645 7.68536 2.26 6.95786 2.2495H6.94586C6.22736 2.2495 5.11136 3.0175 3.53186 4.597C3.53636 4.5925 3.53786 4.591 3.53936 4.591ZM23.3439 30.7495C19.6059 30.7495 14.7324 27.7735 8.85686 21.901C2.95886 16.0045 -0.0216411 11.116 0.000858862 7.3705C0.0143589 4.8955 1.31186 3.628 1.79936 3.1525C1.82486 3.121 1.91186 3.0355 1.94186 3.0055C4.09286 0.852998 5.54336 -0.0170024 6.98636 -0.00050241C8.66186 0.0219976 9.85436 1.276 11.3634 2.8645C11.7369 3.2575 12.1419 3.685 12.5934 4.135C14.7834 6.325 14.1594 8.1115 13.6584 9.5455C13.1124 11.11 12.6399 12.46 15.4689 15.289C18.3009 18.118 19.6509 17.6455 21.2094 17.095C22.6449 16.594 24.4269 15.967 26.6199 18.157C27.0639 18.601 27.4854 19.0015 27.8739 19.372C29.4699 20.8885 30.7299 22.087 30.7509 23.767C30.7689 25.1995 29.8989 26.659 27.7509 28.8085L26.7999 28.1635L27.6039 28.9495C27.1284 29.437 25.8624 30.736 23.3859 30.7495H23.3439Z" fill="#28599B"/>
</g>
</svg>
