<svg width="170" height="170" viewBox="0 0 170 170" fill="none" xmlns="http://www.w3.org/2000/svg">
<g clip-path="url(#clip0_151_736)">
<path d="M169.672 92.8525C168.146 77.4998 161.287 63.026 150.358 52.097C141.019 42.7578 129.588 36.7562 117.559 34.0877V25.6513C122.472 24.4291 126.124 19.9821 126.124 14.6964C126.124 8.47139 121.059 3.40717 114.834 3.40717H90.9278C84.7028 3.40717 79.6386 8.47139 79.6386 14.6964C79.6386 19.9818 83.2903 24.4287 88.2028 25.6513V34.1112C76.2113 36.7911 64.8178 42.7844 55.5049 52.0973C53.4668 54.1354 51.5875 56.2734 49.8672 58.4953C49.7839 58.489 49.7005 58.4827 49.6155 58.4827H25.9543C24.1208 58.4827 22.6339 59.9693 22.6339 61.8031C22.6339 63.6369 24.1208 65.1235 25.9543 65.1235H45.3492C42.9147 69.1992 40.9517 73.4795 39.4576 77.8856H3.32036C1.48686 77.8856 0 79.3721 0 81.206C0 83.0398 1.48686 84.5264 3.32036 84.5264H37.5812C36.6243 88.7269 36.0751 93.0019 35.9333 97.2888H21.2503C19.4168 97.2888 17.93 98.7754 17.93 100.609C17.93 102.443 19.4168 103.93 21.2503 103.93H36.0392C36.3195 108.227 37.0104 112.503 38.1125 116.692H16.6018C14.7683 116.692 13.2815 118.179 13.2815 120.012C13.2815 121.846 14.7683 123.333 16.6018 123.333H40.2315C43.4888 131.949 48.5793 140.026 55.5049 146.951C66.4441 157.89 80.9329 164.751 96.3015 166.269C98.4949 166.486 100.69 166.593 102.882 166.593C115.839 166.593 128.631 162.843 139.485 155.775C141.022 154.774 141.456 152.717 140.456 151.181C139.455 149.644 137.398 149.209 135.861 150.21C112.102 165.682 80.2818 162.337 60.2005 142.256C36.6386 118.694 36.6386 80.3556 60.2005 56.7933C83.7622 33.2317 122.1 33.2317 145.662 56.7933C165.717 76.8483 169.081 108.641 153.66 132.389C152.661 133.927 153.098 135.984 154.636 136.982C156.175 137.981 158.231 137.544 159.229 136.006C167.468 123.317 171.177 107.992 169.672 92.8525ZM86.2793 14.6967C86.2793 12.1334 88.3645 10.0482 90.9278 10.0482H114.834C117.398 10.0482 119.483 12.1334 119.483 14.6967C119.483 17.2601 117.398 19.3453 114.834 19.3453H114.239H91.5232H90.9278C88.3645 19.3453 86.2793 17.2597 86.2793 14.6967ZM94.8436 32.9697V25.986H110.918V32.9578C105.581 32.3229 100.18 32.3269 94.8436 32.9697Z" fill="#EF8711"/>
<path d="M148.011 141.281C147.135 141.281 146.281 141.636 145.664 142.254C145.043 142.872 144.691 143.728 144.691 144.601C144.691 145.475 145.043 146.331 145.664 146.949C146.281 147.57 147.135 147.922 148.011 147.922C148.884 147.922 149.738 147.57 150.359 146.949C150.976 146.331 151.332 145.475 151.332 144.601C151.332 143.728 150.977 142.872 150.359 142.254C149.738 141.636 148.884 141.281 148.011 141.281Z" fill="#EF8711"/>
<path d="M102.932 48.0151C74.5301 48.0151 51.4233 71.1215 51.4233 99.5236C51.4233 127.926 74.5301 151.032 102.932 151.032C131.334 151.032 154.44 127.926 154.44 99.5236C154.44 71.1215 131.334 48.0151 102.932 48.0151ZM102.932 144.391C78.1915 144.391 58.0641 124.264 58.0641 99.5236C58.0641 74.7835 78.1915 54.6558 102.932 54.6558C127.672 54.6558 147.8 74.7835 147.8 99.5236C147.8 124.264 127.672 144.391 102.932 144.391Z" fill="#EF8711"/>
<path d="M123.935 73.825L107.489 90.2704C106.114 89.5904 104.567 89.2063 102.932 89.2063C101.296 89.2063 99.7497 89.5904 98.3744 90.2704L91.0141 82.9102C89.7172 81.6136 87.6154 81.6136 86.3182 82.9102C85.0216 84.2068 85.0216 86.3092 86.3182 87.6059L93.6784 94.9661C92.998 96.3414 92.6142 97.8884 92.6142 99.5237C92.6142 105.213 97.2425 109.841 102.932 109.841C108.621 109.841 113.25 105.213 113.25 99.5237C113.25 97.8884 112.865 96.3414 112.185 94.9661L128.148 79.0031L128.631 78.5207C129.927 77.2241 129.927 75.1216 128.631 73.825C127.334 72.5284 125.232 72.5284 123.935 73.825ZM102.932 103.201C100.904 103.201 99.2549 101.551 99.2549 99.524C99.2549 97.4966 100.904 95.847 102.932 95.847C104.959 95.847 106.609 97.4966 106.609 99.524C106.609 101.551 104.959 103.201 102.932 103.201Z" fill="#EF8711"/>
<path d="M138.433 96.2441H135.357C133.523 96.2441 132.037 97.7306 132.037 99.5645C132.037 101.398 133.523 102.885 135.357 102.885H138.433C140.267 102.885 141.754 101.398 141.754 99.5645C141.754 97.7306 140.267 96.2441 138.433 96.2441Z" fill="#EF8711"/>
<path d="M70.5071 96.1626H67.4312C65.5977 96.1626 64.1108 97.6491 64.1108 99.4829C64.1108 101.317 65.5977 102.803 67.4312 102.803H70.5071C72.3406 102.803 73.8274 101.317 73.8274 99.4829C73.8274 97.6491 72.3406 96.1626 70.5071 96.1626Z" fill="#EF8711"/>
<path d="M102.972 70.4188C104.806 70.4188 106.292 68.9323 106.292 67.0985V64.0226C106.292 62.1888 104.806 60.7023 102.972 60.7023C101.139 60.7023 99.6519 62.1888 99.6519 64.0226V67.0985C99.6519 68.9323 101.139 70.4188 102.972 70.4188Z" fill="#EF8711"/>
<path d="M102.891 128.629C101.057 128.629 99.5703 130.115 99.5703 131.949V135.025C99.5703 136.859 101.057 138.345 102.891 138.345C104.724 138.345 106.211 136.859 106.211 135.025V131.949C106.211 130.115 104.724 128.629 102.891 128.629Z" fill="#EF8711"/>
<path d="M3.32031 116.691C2.44707 116.691 1.59043 117.046 0.972852 117.663C0.355273 118.281 0 119.138 0 120.011C0 120.887 0.354941 121.741 0.972852 122.358C1.59076 122.976 2.44707 123.331 3.32031 123.331C4.19355 123.331 5.0502 122.976 5.66744 122.358C6.28502 121.741 6.64062 120.884 6.64062 120.011C6.64062 119.138 6.28535 118.281 5.66744 117.663C5.0502 117.046 4.19355 116.691 3.32031 116.691Z" fill="#EF8711"/>
</g>
<defs>
<clipPath id="clip0_151_736">
<rect width="170" height="170" fill="white"/>
</clipPath>
</defs>
</svg>
