<svg width="170" height="170" viewBox="0 0 170 170" fill="none" xmlns="http://www.w3.org/2000/svg">
<g clip-path="url(#clip0_151_748)">
<path d="M85 170C62.2957 170 40.9501 161.159 24.8957 145.104C8.84133 129.05 0 107.704 0 85C0 62.2957 8.84166 40.9504 24.8957 24.8957C40.9497 8.841 62.2957 0 85 0C107.704 0 129.05 8.84133 145.104 24.8957C161.159 40.9501 170 62.2957 170 85C170 107.704 161.158 129.05 145.104 145.104C129.05 161.159 107.704 170 85 170ZM85 7.5C43.9895 7.5 7 43.9895 7 85C7 126.011 43.9895 163 85 163C126.011 163 163.5 126.011 163.5 85C163.5 43.9895 126.011 7.5 85 7.5Z" fill="#EF8711"/>
<path d="M85 79.6875C77.6767 79.6875 71.7188 73.7295 71.7188 66.4062C71.7188 59.083 77.6767 53.125 85 53.125C92.3233 53.125 98.2812 59.083 98.2812 66.4062C98.2812 69.3401 100.66 71.7188 103.594 71.7188C106.528 71.7188 108.906 69.3401 108.906 66.4062C108.906 55.0504 100.945 45.5255 90.3125 43.1023V37.1875C90.3125 34.2537 87.9342 31.875 85 31.875C82.0658 31.875 79.6875 34.2537 79.6875 37.1875V43.1023C69.0552 45.5255 61.0938 55.0504 61.0938 66.4062C61.0938 79.5882 71.818 90.3125 85 90.3125C92.3233 90.3125 98.2812 96.2705 98.2812 103.594C98.2812 110.917 92.3233 116.875 85 116.875C77.6767 116.875 71.7188 110.917 71.7188 103.594C71.7188 100.66 69.3404 98.2812 66.4062 98.2812C63.4721 98.2812 61.0938 100.66 61.0938 103.594C61.0938 114.95 69.0552 124.475 79.6875 126.898V132.812C79.6875 135.746 82.0658 138.125 85 138.125C87.9342 138.125 90.3125 135.746 90.3125 132.812V126.898C100.945 124.475 108.906 114.95 108.906 103.594C108.906 90.4118 98.182 79.6875 85 79.6875Z" fill="#EF8711"/>
</g>
<defs>
<clipPath id="clip0_151_748">
<rect width="170" height="170" fill="white"/>
</clipPath>
</defs>
</svg>
