<svg width="31" height="31" viewBox="0 0 31 31" fill="none" xmlns="http://www.w3.org/2000/svg">
<mask id="mask0_109_476" style="mask-type:luminance" maskUnits="userSpaceOnUse" x="0" y="0" width="31" height="31">
<path fill-rule="evenodd" clip-rule="evenodd" d="M0.000640869 0.000305176H30.75V30.7496H0.000640869V0.000305176Z" fill="white"/>
</mask>
<g mask="url(#mask0_109_476)">
<path fill-rule="evenodd" clip-rule="evenodd" d="M3.53927 4.59106C3.54227 4.59106 3.46727 4.66906 3.37277 4.76206C3.00977 5.11456 2.25827 5.84806 2.25077 7.38256C2.23877 9.52906 3.65027 13.5146 10.4468 20.3096C17.2118 27.0716 21.1913 28.4996 23.3423 28.4996H23.3738C24.9083 28.4921 25.6403 27.7391 25.9943 27.3776C26.1023 27.2666 26.1893 27.1856 26.2508 27.1346C27.7448 25.6316 28.5098 24.5126 28.5023 23.7956C28.4918 23.0636 27.5813 22.1981 26.3228 21.0011C25.9223 20.6201 25.4873 20.2061 25.0283 19.7471C23.8388 18.5606 23.2493 18.7631 21.9533 19.2191C20.1608 19.8476 17.7008 20.7026 13.8788 16.8791C10.0508 13.0541 10.9073 10.5971 11.5343 8.80456C11.9873 7.50856 12.1943 6.91756 11.0033 5.72656C10.5368 5.26156 10.1183 4.82056 9.73277 4.41556C8.54327 3.16456 7.68527 2.26006 6.95777 2.24956H6.94577C6.22727 2.24956 5.11127 3.01756 3.53177 4.59706C3.53627 4.59256 3.53777 4.59106 3.53927 4.59106ZM23.3438 30.7496C19.6058 30.7496 14.7323 27.7736 8.85677 21.9011C2.95877 16.0046 -0.0217327 11.1161 0.00076731 7.37056C0.0142673 4.89556 1.31177 3.62806 1.79927 3.15256C1.82477 3.12106 1.91177 3.03556 1.94177 3.00556C4.09277 0.853059 5.54327 -0.0169414 6.98627 -0.000441375C8.66177 0.0220586 9.85427 1.27606 11.3633 2.86456C11.7368 3.25756 12.1418 3.68506 12.5933 4.13506C14.7833 6.32506 14.1593 8.11156 13.6583 9.54556C13.1123 11.1101 12.6398 12.4601 15.4688 15.2891C18.3008 18.1181 19.6508 17.6456 21.2093 17.0951C22.6448 16.5941 24.4268 15.9671 26.6198 18.1571C27.0638 18.6011 27.4853 19.0016 27.8738 19.3721C29.4698 20.8886 30.7298 22.0871 30.7508 23.7671C30.7688 25.1996 29.8988 26.6591 27.7508 28.8086L26.7998 28.1636L27.6038 28.9496C27.1283 29.4371 25.8623 30.7361 23.3858 30.7496H23.3438Z" fill="#28599B"/>
</g>
</svg>
