<svg width="50" height="50" viewBox="0 0 50 50" fill="none" xmlns="http://www.w3.org/2000/svg">
<g clip-path="url(#clip0_130_56)">
<path d="M49.1261 43.1916L31.9757 26.0414L41.5411 16.476C42.4324 15.5848 43.5582 14.9029 44.7965 14.5038C45.7999 14.1813 46.6882 13.6381 47.4369 12.8892C48.7127 11.6136 49.3996 9.91741 49.3714 8.11336C49.3429 6.30898 48.6014 4.63354 47.283 3.39545C47.121 3.24344 46.8922 3.18557 46.678 3.24215C46.4635 3.29861 46.2931 3.46147 46.2271 3.67338L45.1021 7.28245C44.7748 8.33139 43.6551 8.91839 42.6055 8.59097C41.7684 8.32967 41.206 7.56554 41.206 6.68955C41.206 6.48933 41.2366 6.28944 41.297 6.09567L42.4103 2.52836C42.4767 2.31527 42.4282 2.08296 42.282 1.91442C42.1358 1.74587 41.9127 1.66482 41.6923 1.70068C40.4684 1.89928 39.3331 2.43325 38.4093 3.24505C36.7854 4.67304 35.9587 6.80645 36.1978 8.9521C36.4607 11.3087 35.6215 13.6497 33.8952 15.3752L27.6023 21.668L26.581 20.6466L24.9961 16.9997C24.9639 16.9257 24.918 16.8583 24.8608 16.801L16.8595 8.79955C16.7386 8.67878 16.5748 8.61093 16.404 8.61093C16.2332 8.61093 16.0694 8.67878 15.9486 8.79955L9.95159 14.7963L7.17901 12.0238L13.29 5.91275C13.5417 5.66122 13.5417 5.25339 13.29 5.00186L10.5241 2.23594C10.293 2.0047 9.92476 1.98334 9.66829 2.18688L1.18769 8.91689C0.493764 9.45011 0.0632821 10.2569 0.00627811 11.1301C-0.0507259 12.0034 0.271545 12.8591 0.890323 13.478L2.85218 15.4397C2.97789 15.5654 3.14278 15.6283 3.30757 15.6283C3.47236 15.6283 3.63725 15.5654 3.76296 15.4397L4.21845 14.9842L6.99104 17.7568L6.53554 18.2123C6.28391 18.4638 6.28391 18.8716 6.53543 19.1232L9.95127 22.5391C10.2028 22.7906 10.6107 22.7908 10.8622 22.5391L11.849 21.5522L13.9746 23.6778L12.9878 24.6646C12.7362 24.9161 12.7362 25.3239 12.9877 25.5755L13.5702 26.158C14.5274 27.1151 15.9534 27.3828 17.1772 26.8804L18.5996 28.3029C18.7204 28.4236 18.8841 28.4915 19.055 28.4915C19.226 28.4915 19.3897 28.4236 19.5105 28.3029L21.0287 26.7847C21.2802 26.5332 21.2802 26.1253 21.0287 25.8738L20.2589 25.1039L21.6908 24.2586L23.3511 25.9189L15.7524 33.5177C14.8611 34.4088 13.7353 35.0907 12.4968 35.4899C11.5082 35.8081 10.5953 36.3666 9.85637 37.1054C8.58049 38.3814 7.89365 40.0778 7.9221 41.882C7.95076 43.6861 8.69246 45.361 10.0106 46.5983C10.1724 46.7502 10.4012 46.808 10.6154 46.7516C10.8298 46.6952 11.0003 46.5323 11.0663 46.3206L12.1924 42.7124C12.3509 42.2043 12.6978 41.7884 13.169 41.5413C13.6404 41.2941 14.1797 41.2453 14.6879 41.4039C15.525 41.6652 16.0874 42.4293 16.0874 43.3053C16.0874 43.5055 16.0568 43.7054 15.9963 43.8994L14.8841 47.4667C14.8176 47.6799 14.8664 47.9122 15.0128 48.0809C15.1362 48.2229 15.3143 48.3026 15.499 48.3026C15.5335 48.3026 15.5684 48.2998 15.6029 48.2941C16.8266 48.094 17.9612 47.5597 18.8839 46.7488C20.5092 45.3208 21.336 43.1877 21.0957 41.0428C20.8329 38.6875 21.6723 36.3458 23.3983 34.6186L27.7245 30.2924L44.8269 47.3948C45.4337 48.0016 46.2246 48.3079 47.0112 48.3079C47.7353 48.3079 48.4559 48.0482 49.0259 47.5242C49.636 46.9633 49.9815 46.1982 49.9989 45.3699C50.0165 44.5456 49.7064 43.7721 49.1261 43.1916ZM34.8058 16.2861C36.8106 14.2823 37.7846 11.5571 37.478 8.80921C37.2854 7.08138 37.9515 5.36289 39.2598 4.21261C39.7247 3.80392 40.257 3.48294 40.8321 3.26083L40.0671 5.71221C39.9679 6.03051 39.9176 6.35933 39.9176 6.68955C39.9176 8.13236 40.8436 9.39063 42.2217 9.82069C43.9496 10.3597 45.793 9.3931 46.3318 7.66591L47.115 5.15355C47.728 6.01999 48.0661 7.04789 48.0832 8.13365C48.106 9.58601 47.5531 10.9514 46.5259 11.9785C45.9234 12.5811 45.2088 13.0182 44.4018 13.2776C42.9693 13.7391 41.6652 14.5301 40.6302 15.5651L31.0649 25.1306L28.5131 22.5788L34.8058 16.2861ZM1.80131 12.567C1.44469 12.2103 1.25897 11.7172 1.29182 11.2139C1.32467 10.7106 1.57276 10.2457 1.98059 9.93222L10.0193 3.55293L11.9237 5.45736L3.30768 14.0733L1.80131 12.567ZM5.12944 14.0733L6.26813 12.9346L9.04071 15.7072L7.90203 16.8459L5.12944 14.0733ZM12.7601 20.6413L13.3675 20.0341L15.493 22.1595L14.8857 22.7668L12.7601 20.6413ZM16.4039 21.2486L14.2784 19.1232L15.4171 17.9845L17.5426 20.11L16.4039 21.2486ZM19.6626 26.3292L19.0554 26.9365L18.35 26.231L19.1136 25.7802L19.6626 26.3292ZM22.4875 33.7077C20.483 35.7135 19.5093 38.4389 19.8156 41.1857C20.0092 42.9127 19.3431 44.6306 18.0338 45.781C17.5693 46.1892 17.0375 46.5102 16.4625 46.7326L17.2264 44.2824C17.3256 43.9641 17.3758 43.6353 17.3758 43.3051C17.3758 41.8623 16.4499 40.604 15.0718 40.174C13.3445 39.6353 11.5015 40.6018 10.9628 42.3285L10.1789 44.8407C9.56566 43.9748 9.22761 42.9471 9.21043 41.8615C9.18735 40.409 9.74043 39.0434 10.7675 38.0162C11.3708 37.4129 12.0854 36.9755 12.8918 36.7159C14.3243 36.2544 15.6284 35.4635 16.6634 34.4285L24.2622 26.8297L26.8139 29.3814L22.4875 33.7077ZM48.1543 46.5758C47.4867 47.1895 46.4029 47.1484 45.7381 46.4837L22.2489 22.9945C22.1248 22.8704 21.9599 22.8059 21.7933 22.8059C21.681 22.8059 21.5678 22.8352 21.466 22.8953L16.9521 25.5601C16.1536 26.0318 15.1376 25.903 14.4813 25.2471L14.3543 25.1201L18.9088 20.5655C19.1605 20.3139 19.1605 19.9061 18.9088 19.6546L15.8725 16.6181C15.6211 16.3666 15.213 16.3666 14.9617 16.6181L10.407 21.1726L7.90203 18.6677L16.4039 10.1658L23.8632 17.6253L25.4481 21.2721C25.4803 21.3463 25.5262 21.4137 25.5835 21.471L48.2151 44.1026C48.5449 44.4324 48.7211 44.8729 48.7112 45.3429C48.7013 45.8169 48.5035 46.2548 48.1543 46.5758Z" fill="white"/>
<path d="M47.0354 46.136C47.5097 46.136 47.8942 45.7515 47.8942 45.2772C47.8942 44.8029 47.5097 44.4184 47.0354 44.4184C46.561 44.4184 46.1765 44.8029 46.1765 45.2772C46.1765 45.7515 46.561 46.136 47.0354 46.136Z" fill="white"/>
</g>
<defs>
<clipPath id="clip0_130_56">
<rect width="50" height="50" fill="white"/>
</clipPath>
</defs>
</svg>
