<svg width="50" height="50" viewBox="0 0 50 50" fill="none" xmlns="http://www.w3.org/2000/svg">
<g clip-path="url(#clip0_151_232)">
<path d="M48.1579 5.78945C49.1736 5.78945 50 4.96299 50 3.94736V1.84209C50 0.826465 49.1735 0 48.1579 0H36.5789C35.5632 0 34.7368 0.826465 34.7368 1.84209V3.94736C34.7368 4.96309 35.5633 5.78945 36.5789 5.78945H36.8421V10.5263H36.1379C35.8418 9.9044 35.207 9.47363 34.4736 9.47363H32.3684C31.3526 9.47363 30.5263 10.3001 30.5263 11.3157V11.5789H29.2104C28.1947 11.5789 27.3684 12.4054 27.3684 13.421V14.4736C27.3684 15.4894 28.1948 16.3157 29.2104 16.3157H30.5263V17.8946H25.7895V16.5788C25.7895 14.9826 24.4909 13.6841 22.8947 13.6841H2.89473C1.29854 13.6842 0 14.9827 0 16.5789V33.421C0 35.0172 1.29854 36.3157 2.89473 36.3157H22.8947C24.4909 36.3157 25.7895 35.0172 25.7895 33.421V32.1052H30.5263V33.6841H29.2104C28.1947 33.6841 27.3684 34.5105 27.3684 35.5262V36.5788C27.3684 37.5945 28.1948 38.4209 29.2104 38.4209H30.5263V38.6841C30.5263 39.6998 31.3527 40.5262 32.3684 40.5262H34.4736C35.207 40.5262 35.8417 40.0954 36.1379 39.4735H36.8421V44.2104H36.5789C35.5632 44.2104 34.7368 45.0368 34.7368 46.0524V48.1577C34.7368 49.1734 35.5633 49.9998 36.5789 49.9998H48.1578C49.1735 49.9998 49.9999 49.1733 49.9999 48.1577V46.0524C49.9999 45.0367 49.1734 44.2104 48.1578 44.2104H47.8946V39.4735H48.1578C49.1735 39.4735 49.9999 38.6471 49.9999 37.6314V12.3685C49.9999 11.3527 49.1734 10.5264 48.1578 10.5264H47.8946V5.78945H48.1579ZM24.2105 33.4211C24.2105 34.1467 23.6203 34.7369 22.8947 34.7369H5.78945V32.1054H24.2105V33.4211ZM24.2105 30.5263H5.78945V27.8947H24.2105V30.5263ZM24.2105 26.3158H5.78945V23.6843H24.2105V26.3158ZM24.2105 22.1053H5.78945V21.8421C5.78945 21.4061 5.43594 21.0526 5 21.0526C4.56406 21.0526 4.21055 21.4062 4.21055 21.8421V34.7368H2.89473C2.16914 34.7368 1.57891 34.1466 1.57891 33.421V16.5789C1.57891 15.8533 2.16914 15.2631 2.89473 15.2631H4.21055V18.6842C4.21055 19.1202 4.56406 19.4736 5 19.4736H24.2105V22.1053ZM24.2105 17.8947H5.78945V15.2632H22.8947C23.6203 15.2632 24.2105 15.8534 24.2105 16.579V17.8947ZM30.5263 36.8421H29.2104C29.0654 36.8421 28.9473 36.724 28.9473 36.5789V35.5263C28.9473 35.3812 29.0653 35.2631 29.2104 35.2631H30.5263V36.8421ZM30.5263 30.5263H25.7895V19.4737H30.5263V30.5263ZM30.5263 14.7368H29.2104C29.0654 14.7368 28.9473 14.6188 28.9473 14.4736V13.421C28.9473 13.276 29.0653 13.1578 29.2104 13.1578H30.5263V14.7368ZM48.1579 45.7895C48.3029 45.7895 48.4211 45.9075 48.4211 46.0526V48.1579C48.4211 48.3029 48.303 48.4211 48.1579 48.4211H36.5789C36.4339 48.4211 36.3157 48.303 36.3157 48.1579V46.0526C36.3157 45.9076 36.4338 45.7895 36.5789 45.7895H39.7368C40.1729 45.7895 40.5263 45.4359 40.5263 45C40.5263 44.5641 40.1728 44.2105 39.7368 44.2105H38.421V39.4737H46.3157V44.2105H42.8946C42.4586 44.2105 42.1052 44.5641 42.1052 45C42.1052 45.4359 42.4587 45.7895 42.8946 45.7895H48.1579ZM48.1579 12.1053C48.3029 12.1053 48.4211 12.2233 48.4211 12.3685V37.6316C48.4211 37.7767 48.303 37.8948 48.1579 37.8948H36.3158V19.7368C36.3158 19.3008 35.9623 18.9474 35.5264 18.9474C35.0903 18.9474 34.7369 19.3009 34.7369 19.7368V38.6842C34.7369 38.8292 34.6188 38.9474 34.4737 38.9474H32.3685C32.2234 38.9474 32.1053 38.8293 32.1053 38.6842V11.3158C32.1053 11.1708 32.2233 11.0526 32.3685 11.0526H34.4737C34.6187 11.0526 34.7369 11.1707 34.7369 11.3158V16.579C34.7369 17.015 35.0904 17.3685 35.5264 17.3685C35.9624 17.3685 36.3158 17.0149 36.3158 16.579V12.1053H48.1579ZM42.8947 5.78945H46.3158V10.5263H38.4211V5.78945H39.7369C40.173 5.78945 40.5264 5.43594 40.5264 5C40.5264 4.56406 40.1729 4.21055 39.7369 4.21055H36.579C36.434 4.21055 36.3158 4.09248 36.3158 3.94736V1.84209C36.3158 1.69707 36.4339 1.57891 36.579 1.57891H48.1579C48.3029 1.57891 48.4211 1.69697 48.4211 1.84209V3.94736C48.4211 4.09238 48.303 4.21055 48.1579 4.21055H42.8947C42.4587 4.21055 42.1053 4.56406 42.1053 5C42.1053 5.43594 42.4587 5.78945 42.8947 5.78945Z" fill="#EF8711"/>
</g>
<defs>
<clipPath id="clip0_151_232">
<rect width="50" height="50" fill="white"/>
</clipPath>
</defs>
</svg>
