<svg width="50" height="50" viewBox="0 0 50 50" fill="none" xmlns="http://www.w3.org/2000/svg">
<path d="M48.1579 5.78948C49.1736 5.78948 50 4.96301 50 3.94738V1.8421C50 0.826468 49.1735 0 48.1579 0H36.5789C35.5632 0 34.7368 0.826468 34.7368 1.8421V3.94738C34.7368 4.96311 35.5633 5.78948 36.5789 5.78948H36.8421V10.5263H36.1379C35.8418 9.90443 35.207 9.47367 34.4736 9.47367H32.3684C31.3526 9.47367 30.5263 10.3001 30.5263 11.3158V11.579H29.2104C28.1947 11.579 27.3684 12.4054 27.3684 13.421V14.4737C27.3684 15.4894 28.1948 16.3158 29.2104 16.3158H30.5263V17.8947H25.7895V16.5789C25.7895 14.9827 24.4909 13.6841 22.8947 13.6841H2.89473C1.29854 13.6842 0 14.9828 0 16.579V33.4211C0 35.0173 1.29854 36.3159 2.89473 36.3159H22.8947C24.4909 36.3159 25.7895 35.0173 25.7895 33.4211V32.1053H30.5263V33.6842H29.2104C28.1947 33.6842 27.3684 34.5107 27.3684 35.5263V36.579C27.3684 37.5947 28.1948 38.4211 29.2104 38.4211H30.5263V38.6842C30.5263 39.7 31.3527 40.5263 32.3684 40.5263H34.4736C35.207 40.5263 35.8417 40.0956 36.1379 39.4737H36.8421V44.2105H36.5789C35.5632 44.2105 34.7368 45.037 34.7368 46.0526V48.1579C34.7368 49.1736 35.5633 50 36.5789 50H48.1578C49.1735 50 49.9999 49.1735 49.9999 48.1579V46.0526C49.9999 45.0369 49.1734 44.2105 48.1578 44.2105H47.8946V39.4737H48.1578C49.1735 39.4737 49.9999 38.6472 49.9999 37.6316V12.3685C49.9999 11.3528 49.1734 10.5264 48.1578 10.5264H47.8946V5.78948H48.1579ZM24.2105 33.4212C24.2105 34.1468 23.6203 34.7371 22.8947 34.7371H5.78945V32.1055H24.2105V33.4212ZM24.2105 30.5264H5.78945V27.8948H24.2105V30.5264ZM24.2105 26.3159H5.78945V23.6844H24.2105V26.3159ZM24.2105 22.1054H5.78945V21.8422C5.78945 21.4061 5.43594 21.0527 5 21.0527C4.56406 21.0527 4.21055 21.4062 4.21055 21.8422V34.737H2.89473C2.16914 34.737 1.57891 34.1467 1.57891 33.4211V16.579C1.57891 15.8534 2.16914 15.2631 2.89473 15.2631H4.21055V18.6843C4.21055 19.1203 4.56406 19.4737 5 19.4737H24.2105V22.1054ZM24.2105 17.8948H5.78945V15.2632H22.8947C23.6203 15.2632 24.2105 15.8535 24.2105 16.5791V17.8948ZM30.5263 36.8422H29.2104C29.0654 36.8422 28.9473 36.7242 28.9473 36.5791V35.5264C28.9473 35.3814 29.0653 35.2632 29.2104 35.2632H30.5263V36.8422ZM30.5263 30.5264H25.7895V19.4738H30.5263V30.5264ZM30.5263 14.7369H29.2104C29.0654 14.7369 28.9473 14.6188 28.9473 14.4737V13.421C28.9473 13.276 29.0653 13.1579 29.2104 13.1579H30.5263V14.7369ZM48.1579 45.7896C48.3029 45.7896 48.4211 45.9077 48.4211 46.0528V48.1581C48.4211 48.3031 48.303 48.4213 48.1579 48.4213H36.5789C36.4339 48.4213 36.3157 48.3032 36.3157 48.1581V46.0528C36.3157 45.9078 36.4338 45.7896 36.5789 45.7896H39.7368C40.1729 45.7896 40.5263 45.4361 40.5263 45.0002C40.5263 44.5642 40.1728 44.2107 39.7368 44.2107H38.421V39.4739H46.3157V44.2107H42.8946C42.4586 44.2107 42.1052 44.5642 42.1052 45.0002C42.1052 45.4361 42.4587 45.7896 42.8946 45.7896H48.1579ZM48.1579 12.1053C48.3029 12.1053 48.4211 12.2234 48.4211 12.3685V37.6318C48.4211 37.7768 48.303 37.895 48.1579 37.895H36.3158V19.7369C36.3158 19.3009 35.9623 18.9474 35.5264 18.9474C35.0903 18.9474 34.7369 19.301 34.7369 19.7369V38.6843C34.7369 38.8294 34.6188 38.9475 34.4737 38.9475H32.3685C32.2234 38.9475 32.1053 38.8295 32.1053 38.6843V11.3159C32.1053 11.1708 32.2233 11.0527 32.3685 11.0527H34.4737C34.6187 11.0527 34.7369 11.1707 34.7369 11.3159V16.5791C34.7369 17.0151 35.0904 17.3685 35.5264 17.3685C35.9624 17.3685 36.3158 17.015 36.3158 16.5791V12.1053H48.1579ZM42.8947 5.78948H46.3158V10.5263H38.4211V5.78948H39.7369C40.173 5.78948 40.5264 5.43596 40.5264 5.00002C40.5264 4.56408 40.1729 4.21056 39.7369 4.21056H36.579C36.434 4.21056 36.3158 4.0925 36.3158 3.94738V1.8421C36.3158 1.69708 36.4339 1.57891 36.579 1.57891H48.1579C48.3029 1.57891 48.4211 1.69698 48.4211 1.8421V3.94738C48.4211 4.0924 48.303 4.21056 48.1579 4.21056H42.8947C42.4587 4.21056 42.1053 4.56408 42.1053 5.00002C42.1053 5.43596 42.4587 5.78948 42.8947 5.78948Z" fill="white"/>
</svg>
