<svg width="50" height="50" viewBox="0 0 50 50" fill="none" xmlns="http://www.w3.org/2000/svg">
<g clip-path="url(#clip0_130_50)">
<path d="M49.9412 3.73273C49.8329 1.74659 48.2533 0.1672 46.2672 0.0588015C42.2595 -0.160144 34.4174 0.0528446 26.9185 3.93146C23.0958 5.9088 19.0528 9.26124 15.8263 13.1292C15.7866 13.1769 15.7479 13.2248 15.7085 13.2726L8.38621 13.8382C7.18093 13.9314 6.1074 14.5631 5.4408 15.5713L0.445288 23.1272C-0.0602784 23.8918 -0.140649 24.8487 0.230151 25.6869C0.60105 26.5252 1.36316 27.1094 2.26892 27.2497L8.43796 28.2052C8.41619 28.3251 8.39431 28.4449 8.37429 28.5649C8.16892 29.7934 8.57595 31.0565 9.46326 31.9437L18.0562 40.5367C18.7919 41.2724 19.7859 41.6779 20.8045 41.6779C21.0142 41.6779 21.2252 41.6607 21.4351 41.6256C21.5551 41.6056 21.6749 41.5837 21.7948 41.5619L22.7503 47.7311C22.8906 48.6368 23.4748 49.399 24.3129 49.7698C24.6616 49.9241 25.0306 50.0003 25.398 50.0003C25.9139 50.0002 26.4262 49.85 26.8727 49.5548L34.4286 44.5592C35.4369 43.8925 36.0685 42.819 36.1615 41.6138L36.7271 34.2916C36.7749 34.2522 36.8229 34.2135 36.8706 34.1737C40.7386 30.9473 44.0912 26.9043 46.0684 23.0815C49.9472 15.5823 50.1598 7.74005 49.9412 3.73273ZM32.8129 42.1152L25.5852 46.8939L24.654 40.8817C27.7087 39.9835 30.7304 38.545 33.6093 36.618L33.2408 41.388C33.2178 41.6856 33.0618 41.9507 32.8129 42.1152ZM20.1278 38.4652L11.5347 29.8721C11.3155 29.6528 11.2141 29.3446 11.2638 29.0479C11.5193 27.5202 11.9163 26.066 12.4077 24.6961L25.301 37.5895C23.6557 38.1788 22.182 38.5304 20.952 38.736C20.6548 38.7855 20.347 38.6844 20.1278 38.4652ZM8.61189 16.7592L13.3818 16.3907C11.4547 19.2695 10.0162 22.2913 9.11804 25.346L3.10593 24.4149L7.88464 17.1871C8.04929 16.9381 8.31443 16.7821 8.61189 16.7592ZM34.9942 31.9238C32.6277 33.8978 30.3305 35.3255 28.2132 36.3586L13.6408 21.7862C14.9941 19.0222 16.6458 16.7205 18.076 15.0059C21.0619 11.4263 24.7755 8.33829 28.2646 6.53361C35.1469 2.97374 42.3979 2.78204 46.1077 2.984C46.5987 3.01075 46.9892 3.40128 47.016 3.8924C47.2182 7.60216 47.0261 14.8531 43.4663 21.7355C41.6617 25.2245 38.5737 28.938 34.9942 31.9238Z" fill="white"/>
<path d="M34.2501 23.0706C36.1252 23.0704 38.0012 22.3566 39.4289 20.9289C40.8123 19.5456 41.574 17.7064 41.574 15.7501C41.574 13.7939 40.8122 11.9546 39.4289 10.5713C36.5732 7.71554 31.9267 7.71573 29.0712 10.5713C27.6878 11.9546 26.926 13.7939 26.926 15.7501C26.926 17.7064 27.6879 19.5456 29.0712 20.9289C30.4992 22.3568 32.3742 23.0708 34.2501 23.0706ZM31.1426 12.6428C31.9993 11.786 33.1246 11.3577 34.2499 11.3577C35.3752 11.3577 36.5005 11.786 37.3572 12.6428C38.1872 13.4728 38.6442 14.5763 38.6442 15.75C38.6442 16.9237 38.1872 18.0274 37.3572 18.8573C35.6439 20.5707 32.8559 20.5706 31.1425 18.8573C30.3125 18.0274 29.8554 16.9238 29.8554 15.7501C29.8554 14.5764 30.3126 13.4728 31.1426 12.6428Z" fill="white"/>
<path d="M1.49421 41.2049C1.86912 41.2049 2.24402 41.062 2.52996 40.7758L7.31248 35.9933C7.88455 35.4212 7.88455 34.4938 7.31248 33.9217C6.7405 33.3496 5.81296 33.3496 5.24089 33.9217L0.458472 38.7042C-0.113599 39.2763 -0.113599 40.2038 0.458472 40.7758C0.744409 41.0619 1.11931 41.2049 1.49421 41.2049Z" fill="white"/>
<path d="M11.6959 38.3046C11.1239 37.7326 10.1963 37.7326 9.62427 38.3046L0.429541 47.4995C-0.142529 48.0715 -0.142529 48.999 0.429541 49.5711C0.715576 49.8571 1.09038 50.0001 1.46528 50.0001C1.84019 50.0001 2.21509 49.8571 2.50103 49.571L11.6958 40.3762C12.2679 39.8042 12.2679 38.8767 11.6959 38.3046Z" fill="white"/>
<path d="M14.0067 42.6874L9.22422 47.47C8.65215 48.042 8.65215 48.9695 9.22422 49.5416C9.51025 49.8276 9.88516 49.9707 10.26 49.9707C10.6348 49.9707 11.0098 49.8277 11.2957 49.5416L16.0782 44.759C16.6503 44.187 16.6503 43.2595 16.0782 42.6874C15.5063 42.1154 14.5787 42.1154 14.0067 42.6874Z" fill="white"/>
</g>
<defs>
<clipPath id="clip0_130_50">
<rect width="50" height="50" fill="white"/>
</clipPath>
</defs>
</svg>
