<svg width="50" height="50" viewBox="0 0 50 50" fill="none" xmlns="http://www.w3.org/2000/svg">
<g clip-path="url(#clip0_130_16)">
<path d="M36.4584 50C28.9917 50 22.9167 43.925 22.9167 36.4584C22.9167 28.9917 28.9917 22.9167 36.4584 22.9167C43.925 22.9167 50 28.9917 50 36.4584C50 43.925 43.925 50 36.4584 50ZM36.4584 25C30.1396 25 25 30.1417 25 36.4584C25 42.775 30.1396 47.9167 36.4584 47.9167C42.7771 47.9167 47.9167 42.775 47.9167 36.4584C47.9167 30.1417 42.7771 25 36.4584 25Z" fill="white"/>
<path d="M34.375 41.6667C34.1 41.6667 33.8333 41.5563 33.6375 41.3625L29.4708 37.1958C29.0646 36.7896 29.0646 36.1292 29.4708 35.7229C29.8771 35.3167 30.5375 35.3167 30.9437 35.7229L34.3229 39.1021L40.8812 31.6063C41.2604 31.1708 41.9187 31.1292 42.3521 31.5083C42.7854 31.8875 42.8292 32.5438 42.45 32.9771L35.1583 41.3104C34.9687 41.5271 34.6958 41.6562 34.4083 41.6667C34.3979 41.6667 34.3854 41.6667 34.375 41.6667Z" fill="white"/>
<path d="M19.7917 43.75H5.20833C2.3375 43.75 0 41.4146 0 38.5417V11.4583C0 8.58542 2.3375 6.25 5.20833 6.25H9.375C9.95 6.25 10.4167 6.71667 10.4167 7.29167C10.4167 7.86667 9.95 8.33333 9.375 8.33333H5.20833C3.48542 8.33333 2.08333 9.73542 2.08333 11.4583V38.5417C2.08333 40.2646 3.48542 41.6667 5.20833 41.6667H19.7917C20.3667 41.6667 20.8333 42.1333 20.8333 42.7083C20.8333 43.2833 20.3667 43.75 19.7917 43.75Z" fill="white"/>
<path d="M34.375 18.75C33.8 18.75 33.3333 18.2833 33.3333 17.7083V11.4583C33.3333 9.73542 31.9312 8.33333 30.2083 8.33333H26.0417C25.4667 8.33333 25 7.86667 25 7.29167C25 6.71667 25.4667 6.25 26.0417 6.25H30.2083C33.0792 6.25 35.4167 8.58542 35.4167 11.4583V17.7083C35.4167 18.2833 34.95 18.75 34.375 18.75Z" fill="white"/>
<path d="M23.9583 12.5H11.4583C9.73538 12.5 8.3333 11.0979 8.3333 9.375V5.20833C8.3333 4.63333 8.79996 4.16667 9.37496 4.16667H12.6041C13.0895 1.79167 15.1916 0 17.7083 0C20.225 0 22.327 1.79167 22.8125 4.16667H26.0416C26.6166 4.16667 27.0833 4.63333 27.0833 5.20833V9.375C27.0833 11.0979 25.6812 12.5 23.9583 12.5ZM10.4166 6.25V9.375C10.4166 9.94792 10.8833 10.4167 11.4583 10.4167H23.9583C24.5333 10.4167 25 9.94792 25 9.375V6.25H21.875C21.3 6.25 20.8333 5.78333 20.8333 5.20833C20.8333 3.48542 19.4312 2.08333 17.7083 2.08333C15.9854 2.08333 14.5833 3.48542 14.5833 5.20833C14.5833 5.78333 14.1166 6.25 13.5416 6.25H10.4166Z" fill="white"/>
<path d="M28.125 18.75H7.29167C6.71667 18.75 6.25 18.2834 6.25 17.7084C6.25 17.1334 6.71667 16.6667 7.29167 16.6667H28.125C28.7 16.6667 29.1667 17.1334 29.1667 17.7084C29.1667 18.2834 28.7 18.75 28.125 18.75Z" fill="white"/>
<path d="M21.875 25H7.29167C6.71667 25 6.25 24.5334 6.25 23.9584C6.25 23.3834 6.71667 22.9167 7.29167 22.9167H21.875C22.45 22.9167 22.9167 23.3834 22.9167 23.9584C22.9167 24.5334 22.45 25 21.875 25Z" fill="white"/>
<path d="M17.7083 31.25H7.29167C6.71667 31.25 6.25 30.7833 6.25 30.2083C6.25 29.6334 6.71667 29.1667 7.29167 29.1667H17.7083C18.2833 29.1667 18.75 29.6334 18.75 30.2083C18.75 30.7833 18.2833 31.25 17.7083 31.25Z" fill="white"/>
</g>
<defs>
<clipPath id="clip0_130_16">
<rect width="50" height="50" fill="white"/>
</clipPath>
</defs>
</svg>
