<svg width="170" height="170" viewBox="0 0 170 170" fill="none" xmlns="http://www.w3.org/2000/svg">
<g clip-path="url(#clip0_151_752)">
<path d="M159.43 82.0582C147.996 82.0582 137.383 76.3798 131.04 66.8638L128.764 63.4501L126.489 66.8638C120.146 76.3798 109.533 82.0582 98.0992 82.0582H87.7353V125.921C87.7353 136.523 92.5083 146.488 100.484 153.175H43.9709V142.234H79.5295V92.9993H22.0887V114.882H5.67709V5.47055H126.029V54.7055H131.5V0H0.206543V118.749L40.1032 158.646H108.893L128.764 170L151.877 156.794C162.928 150.481 169.793 138.648 169.793 125.921V82.0582H159.43ZM38.5004 149.308L9.54477 120.352H38.5004V149.308ZM27.5593 114.882V98.4699H74.0589V136.764H43.9709V114.882H27.5593ZM164.323 125.921C164.323 136.693 158.513 146.701 149.164 152.046L128.764 163.703L108.365 152.046C99.0156 146.701 93.2058 136.693 93.2058 125.921V87.5288H98.0992C110.08 87.5288 121.283 82.1539 128.764 72.9826C136.245 82.1539 147.449 87.5288 159.43 87.5288H164.323V125.921Z" fill="#EF8711"/>
<path d="M153.381 109.411V125.921C153.381 132.776 149.683 139.146 143.734 142.546L146.447 147.294C154.098 142.924 158.852 134.734 158.852 125.921V109.411H153.381Z" fill="#EF8711"/>
<path d="M16.6182 10.9411V27.3527H115.088V10.9411H16.6182ZM109.617 21.8822H22.0887V16.4116H109.617V21.8822Z" fill="#EF8711"/>
<path d="M151.447 93.8008L115.087 130.161L106.08 121.154L102.212 125.021L115.087 137.896L155.315 97.6685L151.447 93.8008Z" fill="#EF8711"/>
<path d="M68.5883 103.94H33.0298V109.411H68.5883V103.94Z" fill="#EF8711"/>
<path d="M68.5883 114.881H49.4414V120.352H68.5883V114.881Z" fill="#EF8711"/>
<path d="M68.5883 125.823H49.4414V131.293H68.5883V125.823Z" fill="#EF8711"/>
<path d="M104.147 38.2938H16.6182V43.7644H104.147V38.2938Z" fill="#EF8711"/>
<path d="M104.147 49.2349H16.6182V54.7055H104.147V49.2349Z" fill="#EF8711"/>
<path d="M104.147 60.176H16.6182V65.6466H104.147V60.176Z" fill="#EF8711"/>
<path d="M68.5884 71.1171H16.6182V76.5877H68.5884V71.1171Z" fill="#EF8711"/>
<path d="M68.5884 82.0582H16.6182V87.5288H68.5884V82.0582Z" fill="#EF8711"/>
<path d="M115.088 38.2938H109.617V43.7644H115.088V38.2938Z" fill="#EF8711"/>
<path d="M115.088 49.2349H109.617V54.7055H115.088V49.2349Z" fill="#EF8711"/>
<path d="M115.088 60.176H109.617V65.6466H115.088V60.176Z" fill="#EF8711"/>
<path d="M79.5301 71.1171H74.0596V76.5877H79.5301V71.1171Z" fill="#EF8711"/>
<path d="M79.5301 82.0582H74.0596V87.5288H79.5301V82.0582Z" fill="#EF8711"/>
</g>
<defs>
<clipPath id="clip0_151_752">
<rect width="170" height="170" fill="white"/>
</clipPath>
</defs>
</svg>
