<svg width="170" height="170" viewBox="0 0 170 170" fill="none" xmlns="http://www.w3.org/2000/svg">
<g clip-path="url(#clip0_151_731)">
<path d="M134.621 135.534C133.175 134.428 131.108 134.705 130.003 136.151C128.898 137.596 129.175 139.664 130.62 140.769L136.25 145.071C136.845 145.526 137.549 145.748 138.249 145.748C139.15 145.748 140.045 145.38 140.692 144.665L151.453 132.784C152.674 131.435 152.571 129.352 151.222 128.131C149.874 126.91 147.79 127.013 146.569 128.361L137.843 137.996L134.621 135.534Z" fill="#EF8711"/>
<path d="M169.599 117.948C169.561 116.268 168.266 114.887 166.592 114.74C158.756 114.056 149.112 108.791 142.023 101.33C141.401 100.676 140.538 100.305 139.635 100.305C139.635 100.305 139.635 100.305 139.634 100.305C138.732 100.305 137.869 100.675 137.248 101.328C134.066 104.673 130.372 107.574 126.56 109.821C119.872 102.355 111.64 96.8542 101.992 93.3915C101.908 93.3576 101.823 93.3272 101.736 93.3002C100.985 93.034 100.224 92.7801 99.4559 92.5383C107.615 84.4006 113.104 73.7065 113.104 64.1131V58.9373C116.961 57.2579 119.666 53.4081 119.666 48.9367C119.666 44.292 116.742 40.3194 112.64 38.7562C110.947 22.3172 99.3646 8.49807 83.4553 3.92619C82.9852 1.68703 80.9957 0 78.6192 0H66.6815C64.3893 0 62.4624 1.57074 61.9063 3.6913C54.0806 5.77827 46.9326 10.2329 41.5734 16.4262C36.1337 22.7125 32.7511 30.5629 31.892 38.7579C27.7875 40.322 24.8632 44.2937 24.8632 48.937C24.8632 53.4101 27.5721 57.2608 31.4344 58.9393V64.1134C31.4344 73.6979 36.9237 84.396 45.0828 92.5392C44.3366 92.7738 43.5977 93.0192 42.8674 93.2768C42.7237 93.3177 42.5841 93.3681 42.448 93.4277C31.6492 97.3233 22.6335 103.772 15.5731 112.677C8.78283 121.241 3.95564 131.818 1.22595 144.115C0.25445 148.509 -0.476234 154.032 2.5203 157.763C5.44731 161.408 10.6847 161.875 14.9208 161.875H36.4708C38.2902 161.875 39.7651 160.4 39.7651 158.58C39.7651 156.761 38.2902 155.286 36.4708 155.286H14.9208C10.9798 155.286 8.53609 154.731 7.65749 153.637C6.72684 152.478 6.72749 149.753 7.65847 145.54C11.0823 130.118 19.4538 111.246 39.6241 101.718C39.0038 112.848 45.0341 120.122 48.867 124.739C49.4537 125.446 50.3089 125.876 51.2264 125.925C52.1432 125.975 53.04 125.637 53.6985 124.997L72.2647 106.941L90.8398 124.998C91.4562 125.597 92.2805 125.93 93.136 125.93C93.195 125.93 93.2539 125.928 93.3136 125.925C94.231 125.875 95.0866 125.445 95.673 124.737C99.5007 120.116 105.522 112.837 104.907 101.731C110.759 104.507 115.929 108.219 120.375 112.844C117.72 113.871 115.11 114.528 112.676 114.741C111.003 114.887 109.708 116.267 109.669 117.946C109.394 129.724 111.357 138.163 116.668 148.039C116.713 148.123 118.507 151.34 121.304 155.287H66.2954C64.4759 155.287 63.001 156.762 63.001 158.581C63.001 160.4 64.4759 161.875 66.2954 161.875H126.536C130.508 166.265 135.192 170.001 139.634 170.001C150.351 170.001 162.482 148.259 162.599 148.042C167.901 138.163 169.864 129.726 169.599 117.948ZM105.915 38.045H87.7774C84.3507 29.0933 83.7023 21.7117 83.586 10.8756C95.4684 15.0782 104.106 25.5627 105.915 38.045ZM68.327 6.58867H76.9733C76.9941 19.3404 77.3172 27.9768 80.7694 38.045H64.5375C67.9837 27.9765 68.3066 19.3391 68.327 6.58867ZM61.7176 10.6157C61.6089 21.5944 60.979 29.0215 57.5311 38.0453H38.621C40.5001 25.4007 49.5898 14.6318 61.7176 10.6157ZM35.7644 44.6337H57.8029C57.9969 44.7911 58.1847 44.8112 58.3422 44.6337H108.774C111.146 44.6337 113.077 46.5638 113.077 48.937C113.077 51.3152 111.147 53.25 108.774 53.25H35.7644C33.3866 53.25 31.4518 51.3152 31.4518 48.937C31.4518 46.5641 33.3863 44.6337 35.7644 44.6337ZM38.023 64.1134V59.8383H106.515V64.1134C106.515 76.6734 94.3467 92.2072 80.4749 97.3566C74.4051 99.6122 70.0957 99.6102 64.0117 97.3493C50.1673 92.1788 38.023 76.6477 38.023 64.1134ZM51.6952 117.754C48.2856 113.303 45.0024 107.459 46.5804 98.9757C48.0335 98.5066 49.5351 98.0787 51.092 97.7002C54.414 100.137 57.9969 102.136 61.7113 103.524C62.9068 103.968 64.0572 104.334 65.1825 104.638L51.6952 117.754ZM92.8395 117.752L79.3439 104.634C80.4548 104.333 81.59 103.971 82.7687 103.533C86.5015 102.148 90.1019 100.145 93.4394 97.6995C94.9772 98.0737 96.4811 98.4977 97.9484 98.9728C99.53 107.444 96.2482 113.294 92.8395 117.752ZM156.792 144.927C152.897 152.198 143.773 163.411 139.634 163.411C135.495 163.411 126.371 152.198 122.473 144.923C118.12 136.828 116.333 130.077 116.236 120.886C119.79 120.21 123.49 118.883 127.128 117.031C127.256 116.976 127.381 116.91 127.503 116.837C131.751 114.629 135.906 111.706 139.633 108.233C146.649 114.779 155.191 119.395 163.029 120.886C162.925 130.079 161.139 136.831 156.792 144.927Z" fill="#EF8711"/>
<path d="M51.3832 155.286C49.5637 155.286 48.0889 156.761 48.0889 158.58C48.0889 160.4 49.5637 161.875 51.3832 161.875H51.402C53.2214 161.875 54.6867 160.4 54.6867 158.58C54.6867 156.761 53.2026 155.286 51.3832 155.286Z" fill="#EF8711"/>
</g>
<defs>
<clipPath id="clip0_151_731">
<rect width="170" height="170" fill="white"/>
</clipPath>
</defs>
</svg>
