<svg width="50" height="50" viewBox="0 0 50 50" fill="none" xmlns="http://www.w3.org/2000/svg">
<g clip-path="url(#clip0_151_208)">
<path d="M39.5945 39.8628C39.1691 39.5376 38.5612 39.6192 38.2363 40.0443C37.9113 40.4695 37.9926 41.0775 38.4177 41.4025L40.0735 42.668C40.2486 42.8018 40.4556 42.8671 40.6615 42.8671C40.9265 42.8671 41.1896 42.7588 41.38 42.5487L44.5449 39.0542C44.9041 38.6575 44.8739 38.0447 44.4772 37.6856C44.0806 37.3264 43.4678 37.3567 43.1086 37.7533L40.5421 40.5872L39.5945 39.8628Z" fill="#EF8711"/>
<path d="M49.8821 34.6906C49.871 34.1966 49.49 33.7902 48.9979 33.7472C46.6929 33.5457 43.8565 31.9974 41.7714 29.8029C41.5885 29.6105 41.3347 29.5015 41.0693 29.5014C41.0692 29.5014 41.0691 29.5014 41.069 29.5014C40.8037 29.5014 40.5499 29.6102 40.367 29.8024C39.4311 30.7862 38.3447 31.6395 37.2237 32.3004C35.2566 30.1044 32.8354 28.4865 29.9978 27.4681C29.9731 27.4581 29.9481 27.4492 29.9225 27.4412C29.7015 27.363 29.4778 27.2883 29.2518 27.2171C31.6516 24.8237 33.2658 21.6784 33.2658 18.8568V17.3345C34.4003 16.8406 35.1958 15.7083 35.1958 14.3932C35.1958 13.0271 34.336 11.8586 33.1294 11.3989C32.6314 6.56387 29.2249 2.49943 24.5457 1.15476C24.4075 0.496185 23.8223 0 23.1234 0H19.6123C18.9381 0 18.3714 0.461982 18.2078 1.08568C15.9061 1.69949 13.8038 3.00967 12.2275 4.83124C10.6276 6.68014 9.63275 8.98908 9.38006 11.3994C8.17288 11.8594 7.31276 13.0276 7.31276 14.3932C7.31276 15.7089 8.10951 16.8414 9.24547 17.3351V18.8569C9.24547 21.6759 10.86 24.8223 13.2597 27.2174C13.0403 27.2864 12.8229 27.3586 12.6081 27.4344C12.5659 27.4464 12.5248 27.4612 12.4848 27.4787C9.30865 28.6245 6.657 30.5211 4.5804 33.1402C2.58326 35.6592 1.16349 38.7699 0.360645 42.3867C0.0749101 43.6792 -0.139997 45.3035 0.741335 46.4009C1.60222 47.4729 3.14262 47.6102 4.38855 47.6102H10.7268C11.2619 47.6102 11.6957 47.1764 11.6957 46.6413C11.6957 46.1063 11.2619 45.6724 10.7268 45.6724H4.38855C3.22943 45.6724 2.51068 45.5092 2.25227 45.1875C1.97855 44.8466 1.97875 44.045 2.25256 42.8057C3.25957 38.27 5.72179 32.7196 11.6542 29.9171C11.4718 33.1904 13.2454 35.33 14.3727 36.688C14.5453 36.8959 14.7968 37.0222 15.0667 37.0367C15.3363 37.0516 15.6001 36.9522 15.7937 36.7638L21.2544 31.4534L26.7177 36.764C26.899 36.9402 27.1414 37.0381 27.393 37.0381C27.4104 37.0381 27.4277 37.0377 27.4452 37.0367C27.7151 37.0221 27.9667 36.8955 28.1392 36.6873C29.265 35.3282 31.036 33.1873 30.8552 29.9209C32.5763 30.7373 34.0969 31.8292 35.4045 33.1894C34.6237 33.4916 33.8559 33.6847 33.14 33.7473C32.6482 33.7902 32.2673 34.1963 32.2557 34.69C32.1746 38.1541 32.752 40.636 34.3141 43.541C34.3273 43.5656 34.8552 44.5118 35.6777 45.6726H19.4987C18.9636 45.6726 18.5298 46.1065 18.5298 46.6415C18.5298 47.1766 18.9636 47.6104 19.4987 47.6104H37.2165C38.3847 48.9014 39.7624 50.0002 41.0689 50.0002C44.221 50.0002 47.7889 43.6056 47.8232 43.5416C49.3828 40.6362 49.96 38.1547 49.8821 34.6906ZM31.1517 11.1897H25.817C24.8091 8.55685 24.6184 6.38578 24.5842 3.1987C28.079 4.43476 30.6196 7.51845 31.1517 11.1897ZM20.0962 1.93785H22.6393C22.6454 5.68835 22.7404 8.22848 23.7558 11.1897H18.9817C19.9953 8.22838 20.0902 5.68796 20.0962 1.93785ZM18.1523 3.12226C18.1203 6.35129 17.9351 8.53572 16.921 11.1898H11.3592C11.9119 7.47078 14.5853 4.30347 18.1523 3.12226ZM10.519 13.1275H17.0009C17.058 13.1739 17.1132 13.1798 17.1595 13.1275H31.9923C32.6902 13.1275 33.258 13.6952 33.258 14.3932C33.258 15.0927 32.6903 15.6618 31.9923 15.6618H10.519C9.81966 15.6618 9.25061 15.0927 9.25061 14.3932C9.25061 13.6953 9.81956 13.1275 10.519 13.1275ZM11.1833 18.8569V17.5995H31.3279V18.8569C31.3279 22.551 27.7491 27.1198 23.6691 28.6343C21.8839 29.2977 20.6165 29.2971 18.8271 28.6322C14.7552 27.1114 11.1833 22.5434 11.1833 18.8569ZM15.2045 34.6337C14.2017 33.3244 13.2361 31.6056 13.7002 29.1105C14.1276 28.9725 14.5692 28.8467 15.0271 28.7353C16.0042 29.4522 17.058 30.0401 18.1505 30.4481C18.5021 30.5787 18.8404 30.6864 19.1714 30.7759L15.2045 34.6337ZM27.3058 34.6331L23.3365 30.7747C23.6632 30.6861 23.9971 30.5798 24.3438 30.4509C25.4417 30.0434 26.5006 29.4543 27.4822 28.7351C27.9345 28.8452 28.3769 28.9699 28.8084 29.1096C29.2736 31.6012 28.3083 33.3218 27.3058 34.6331ZM46.1155 42.6256C44.9697 44.7641 42.2862 48.0621 41.0689 48.0621C39.8515 48.0621 37.1681 44.7641 36.0216 42.6243C34.7411 40.2434 34.2157 38.258 34.1872 35.5547C35.2325 35.3558 36.3207 34.9657 37.3907 34.421C37.4283 34.4046 37.465 34.3853 37.5009 34.3638C38.7504 33.7143 39.9724 32.8548 41.0685 31.8333C43.1321 33.7585 45.6444 35.1163 47.9498 35.5548C47.9192 38.2585 47.3939 40.2443 46.1155 42.6256Z" fill="#EF8711"/>
<path d="M15.1127 45.6724C14.5776 45.6724 14.1438 46.1062 14.1438 46.6413C14.1438 47.1763 14.5776 47.6102 15.1127 47.6102H15.1182C15.6534 47.6102 16.0844 47.1763 16.0844 46.6413C16.0844 46.1062 15.6479 45.6724 15.1127 45.6724Z" fill="#EF8711"/>
</g>
<defs>
<clipPath id="clip0_151_208">
<rect width="50" height="50" fill="white"/>
</clipPath>
</defs>
</svg>
