<svg width="50" height="50" viewBox="0 0 50 50" fill="none" xmlns="http://www.w3.org/2000/svg">
<path d="M47.6562 28.9062C47.8634 28.9062 48.0622 28.8239 48.2087 28.6774C48.3552 28.5309 48.4375 28.3322 48.4375 28.125V21.875C48.4375 21.6678 48.3552 21.4691 48.2087 21.3226C48.0622 21.1761 47.8634 21.0938 47.6562 21.0938H43.3336C42.8587 18.8532 41.9749 16.7194 40.7266 14.7992L43.7797 11.7391C43.9259 11.5926 44.008 11.3941 44.008 11.1871C44.008 10.9801 43.9259 10.7816 43.7797 10.6352L39.3656 6.22109C39.2192 6.07487 39.0206 5.99274 38.8137 5.99274C38.6067 5.99274 38.4082 6.07487 38.2617 6.22109L35.2008 9.27344C33.2806 8.02505 31.1468 7.14128 28.9062 6.66641V2.34375C28.9062 2.13655 28.8239 1.93784 28.6774 1.79132C28.5309 1.64481 28.3322 1.5625 28.125 1.5625H21.875C21.6678 1.5625 21.4691 1.64481 21.3226 1.79132C21.1761 1.93784 21.0938 2.13655 21.0938 2.34375V6.66641C18.8532 7.14128 16.7194 8.02505 14.7992 9.27344L11.7391 6.22031C11.5926 6.07409 11.3941 5.99196 11.1871 5.99196C10.9801 5.99196 10.7816 6.07409 10.6352 6.22031L6.22109 10.6344C6.07487 10.7808 5.99274 10.9794 5.99274 11.1863C5.99274 11.3933 6.07487 11.5918 6.22109 11.7383L9.27422 14.7984C8.02547 16.7188 7.14143 18.8529 6.66641 21.0938H2.34375C2.13655 21.0938 1.93784 21.1761 1.79132 21.3226C1.64481 21.4691 1.5625 21.6678 1.5625 21.875V28.125C1.5625 28.3322 1.64481 28.5309 1.79132 28.6774C1.93784 28.8239 2.13655 28.9062 2.34375 28.9062H6.66641C7.14128 31.1468 8.02505 33.2806 9.27344 35.2008L6.22031 38.2609C6.07409 38.4074 5.99196 38.6059 5.99196 38.8129C5.99196 39.0199 6.07409 39.2184 6.22031 39.3648L10.6344 43.7789C10.7808 43.9251 10.9794 44.0073 11.1863 44.0073C11.3933 44.0073 11.5918 43.9251 11.7383 43.7789L14.7984 40.7258C16.7188 41.9745 18.8529 42.8586 21.0938 43.3336V47.6562C21.0938 47.8634 21.1761 48.0622 21.3226 48.2087C21.4691 48.3552 21.6678 48.4375 21.875 48.4375H28.125C28.3322 48.4375 28.5309 48.3552 28.6774 48.2087C28.8239 48.0622 28.9062 47.8634 28.9062 47.6562V43.3336C31.1461 42.8568 33.2791 41.9718 35.1984 40.7227L41.5727 47.0969C42.3063 47.8241 43.2982 48.2312 44.3312 48.2289C45.3643 48.2267 46.3543 47.8153 47.0848 47.0848C47.8153 46.3543 48.2267 45.3643 48.2289 44.3312C48.2312 43.2982 47.8241 42.3063 47.0969 41.5727L40.7227 35.1984C41.9718 33.2791 42.8568 31.1461 43.3336 28.9062H47.6562ZM45.9922 45.9922C45.7745 46.2099 45.5162 46.3825 45.2318 46.5004C44.9474 46.6182 44.6426 46.6788 44.3348 46.6788C44.0269 46.6788 43.7221 46.6182 43.4378 46.5004C43.1534 46.3825 42.895 46.2099 42.6773 45.9922L27.718 31.0336C27.3546 30.6707 26.9231 30.3834 26.4481 30.1882C25.9732 29.9929 25.4643 29.8937 24.9508 29.8961C24.7879 29.896 24.6251 29.9057 24.4633 29.925C23.4497 30.0467 22.4217 29.9181 21.4694 29.5504C20.517 29.1827 19.6694 28.5871 19.0006 27.8158C18.3318 27.0445 17.8624 26.121 17.6333 25.1261C17.4043 24.1313 17.4226 23.0955 17.6867 22.1094L21.1328 25.5563C21.2793 25.7028 21.478 25.7851 21.6852 25.7852H25C25.2072 25.7852 25.4059 25.7028 25.5524 25.5563C25.6989 25.4098 25.7812 25.2111 25.7812 25.0039V21.6852C25.7812 21.478 25.6989 21.2793 25.5523 21.1328L22.1094 17.6867C23.0953 17.4232 24.1307 17.4053 25.1251 17.6347C26.1196 17.864 27.0426 18.3336 27.8135 19.0023C28.5844 19.671 29.1797 20.5184 29.5473 21.4704C29.9148 22.4224 30.0434 23.45 29.9219 24.4633C29.8465 25.0544 29.9072 25.6549 30.0993 26.219C30.2915 26.7831 30.6099 27.2958 31.0305 27.718L45.9922 42.6773C46.2099 42.895 46.3825 43.1534 46.5004 43.4378C46.6182 43.7221 46.6788 44.0269 46.6788 44.3348C46.6788 44.6426 46.6182 44.9474 46.5004 45.2318C46.3825 45.5162 46.2099 45.7745 45.9922 45.9922ZM32.1383 26.6172C31.8855 26.3618 31.6946 26.0519 31.58 25.7114C31.4655 25.3708 31.4304 25.0086 31.4773 24.6523C31.6448 23.2637 31.436 21.8555 30.873 20.5752C30.3099 19.2948 29.4132 18.1892 28.2766 17.374C27.14 16.5587 25.8053 16.0639 24.412 15.941C23.0187 15.8182 21.6179 16.072 20.3563 16.6758C20.2437 16.7298 20.1457 16.8101 20.0705 16.9098C19.9953 17.0095 19.9451 17.1258 19.9242 17.2489C19.9032 17.3721 19.9121 17.4984 19.95 17.6174C19.9879 17.7364 20.0538 17.8445 20.1422 17.9328L24.2188 22.0086V24.2188H22.0086L17.9328 20.1422C17.8445 20.0538 17.7364 19.9879 17.6174 19.95C17.4984 19.9121 17.3721 19.9032 17.2489 19.9242C17.1258 19.9451 17.0095 19.9953 16.9098 20.0705C16.8101 20.1457 16.7298 20.2437 16.6758 20.3563C16.0722 21.6176 15.8184 23.0179 15.9411 24.4108C16.0637 25.8037 16.5583 27.1381 17.373 28.2745C18.1878 29.4109 19.2928 30.3076 20.5726 30.8709C21.8525 31.4342 23.2601 31.6434 24.6484 31.4766C25.0047 31.4297 25.367 31.465 25.7076 31.5797C26.0481 31.6944 26.3579 31.8855 26.6133 32.1383L30.632 36.1562C27.9771 37.4974 24.9312 37.8486 22.0407 37.1468C19.1503 36.4449 16.6046 34.7359 14.8604 32.3266C13.1163 29.9172 12.2878 26.9651 12.5237 24C12.7597 21.035 14.0445 18.251 16.1478 16.1478C18.251 14.0445 21.035 12.7597 24 12.5237C26.9651 12.2878 29.9172 13.1163 32.3266 14.8604C34.7359 16.6046 36.4449 19.1503 37.1468 22.0407C37.8486 24.9312 37.4974 27.9771 36.1562 30.632L32.1383 26.6172ZM41.918 27.9969C41.5412 30.1531 40.7524 32.2166 39.5945 34.0742L37.3102 31.7898C38.9491 28.8198 39.4607 25.3579 38.7507 22.0408C38.0407 18.7238 36.157 15.7745 33.4459 13.7356C30.7348 11.6967 27.3787 10.7051 23.9949 10.9434C20.611 11.1816 17.427 12.6336 15.0283 15.0322C12.6297 17.4309 11.1777 20.6149 10.9395 23.9988C10.7012 27.3826 11.6928 30.7387 13.7317 33.4498C15.7706 36.1609 18.7199 38.0446 22.0369 38.7546C25.354 39.4646 28.8159 38.953 31.7859 37.3141L34.0703 39.5984C32.2127 40.7563 30.1492 41.5451 27.993 41.9219C27.8121 41.9529 27.6478 42.0466 27.5291 42.1866C27.4104 42.3266 27.3448 42.5039 27.3438 42.6875V46.875H22.6562V42.6875C22.6561 42.5033 22.5909 42.325 22.4721 42.1842C22.3533 42.0434 22.1886 41.9491 22.007 41.918C19.5425 41.4866 17.2035 40.5172 15.1562 39.0789C15.0058 38.9732 14.8229 38.9239 14.6397 38.9398C14.4565 38.9556 14.2847 39.0356 14.1547 39.1656L11.1922 42.1227L7.88125 38.8117L10.8383 35.8492C10.9683 35.7192 11.0483 35.5474 11.0641 35.3642C11.08 35.181 11.0307 34.9981 10.925 34.8477C9.48616 32.7993 8.51679 30.4588 8.08594 27.993C8.05469 27.8107 7.95982 27.6455 7.8182 27.5266C7.67659 27.4077 7.4974 27.3429 7.3125 27.3438H3.125V22.6562H7.3125C7.49672 22.6561 7.67498 22.5909 7.81579 22.4721C7.9566 22.3533 8.0509 22.1886 8.08203 22.007C8.51343 19.5425 9.48278 17.2035 10.9211 15.1562C11.0268 15.0058 11.0761 14.8229 11.0602 14.6397C11.0444 14.4565 10.9644 14.2847 10.8344 14.1547L7.87734 11.1922L11.1883 7.88125L14.1508 10.8383C14.2808 10.9683 14.4526 11.0483 14.6358 11.0641C14.819 11.08 15.0019 11.0307 15.1523 10.925C17.2007 9.48616 19.5412 8.51679 22.007 8.08594C22.1893 8.05469 22.3545 7.95982 22.4734 7.8182C22.5923 7.67659 22.6571 7.4974 22.6562 7.3125V3.125H27.3438V7.3125C27.3439 7.49672 27.4091 7.67498 27.5279 7.81579C27.6467 7.9566 27.8114 8.0509 27.993 8.08203C30.4588 8.51288 32.7993 9.48225 34.8477 10.9211C34.9981 11.0268 35.181 11.0761 35.3642 11.0602C35.5474 11.0444 35.7192 10.9644 35.8492 10.8344L38.8117 7.87734L42.1227 11.1883L39.1656 14.1508C39.0356 14.2808 38.9556 14.4526 38.9398 14.6358C38.9239 14.819 38.9732 15.0019 39.0789 15.1523C40.5177 17.2007 41.4871 19.5412 41.918 22.007C41.9491 22.1886 42.0434 22.3533 42.1842 22.4721C42.325 22.5909 42.5033 22.6561 42.6875 22.6562H46.875V27.3438H42.6875C42.5033 27.3439 42.325 27.4091 42.1842 27.5279C42.0434 27.6467 41.9491 27.8114 41.918 27.993V27.9969Z" fill="white"/>
<path d="M29.9719 28.8672C29.8998 28.7926 29.8136 28.733 29.7183 28.6921C29.6229 28.6511 29.5204 28.6296 29.4167 28.6287C29.313 28.6278 29.2101 28.6476 29.1141 28.6868C29.0181 28.7261 28.9308 28.7841 28.8575 28.8575C28.7841 28.9308 28.7261 29.0181 28.6868 29.1141C28.6476 29.2101 28.6278 29.313 28.6287 29.4167C28.6296 29.5204 28.6511 29.6229 28.6921 29.7183C28.733 29.8136 28.7926 29.8998 28.8672 29.9719L29.4195 30.5242C29.5669 30.6665 29.7642 30.7453 29.969 30.7435C30.1739 30.7417 30.3698 30.6595 30.5147 30.5147C30.6595 30.3698 30.7417 30.1739 30.7435 29.969C30.7453 29.7642 30.6665 29.5669 30.5242 29.4195L29.9719 28.8672Z" fill="white"/>
<path d="M41.0203 42.125C41.1677 42.2673 41.365 42.3461 41.5699 42.3443C41.7747 42.3425 41.9706 42.2604 42.1155 42.1155C42.2603 41.9707 42.3425 41.7747 42.3443 41.5699C42.3461 41.365 42.2673 41.1677 42.125 41.0204L32.7344 31.6289C32.5878 31.4824 32.389 31.4 32.1816 31.4C31.9743 31.4 31.7755 31.4824 31.6289 31.6289C31.4823 31.7755 31.4 31.9744 31.4 32.1817C31.4 32.389 31.4823 32.5878 31.6289 32.7344L41.0203 42.125Z" fill="white"/>
<path d="M43.7827 44.8875C43.9301 45.0298 44.1274 45.1086 44.3323 45.1068C44.5371 45.105 44.7331 45.0229 44.8779 44.878C45.0228 44.7332 45.1049 44.5372 45.1067 44.3324C45.1085 44.1275 45.0297 43.9302 44.8874 43.7828L44.3351 43.2297C44.1885 43.0831 43.9897 43.0008 43.7824 43.0008C43.575 43.0008 43.3762 43.0831 43.2296 43.2297C43.083 43.3763 43.0007 43.5751 43.0007 43.7824C43.0007 43.9898 43.083 44.1886 43.2296 44.3352L43.7827 44.8875Z" fill="white"/>
</svg>
